<?xml version="1.0" encoding="UTF-8"?>
<!DOCTYPE svg PUBLIC "-//W3C//DTD SVG 1.1//EN" "http://www.w3.org/Graphics/SVG/1.1/DTD/svg11.dtd">
<!-- Creator: CorelDRAW X7 -->
<?xml-stylesheet href="Untitled-1.css" type="text/css"?>
<svg xmlns="http://www.w3.org/2000/svg" xml:space="preserve" width="600px" height="31px" version="1.1" style="shape-rendering:geometricPrecision; text-rendering:geometricPrecision; image-rendering:optimizeQuality; fill-rule:evenodd; clip-rule:evenodd"
viewBox="0 0 142 7"
 xmlns:xlink="http://www.w3.org/1999/xlink">
 <defs>
   <clipPath id="id0">
    <path d="M0 0l142 0 0 7 -142 0 0 -7z"/>
   </clipPath>
 </defs>
 <g id="Layer_x0020_1">
  <metadata id="CorelCorpID_0Corel-Layer"/>
  <polygon class="fil0" points="0,0 142,0 142,7 0,7 "/>
  <g style="clip-path:url(#id0)">
   <g id="_2522880668416">
    <g>
     <line id="1" class="fil1 str0" x1="4" y1="-1" x2="-3" y2= "8" />
     <line class="fil1 str0" x1="6" y1="-1" x2="-2" y2= "8" />
     <line class="fil1 str0" x1="7" y1="-1" x2="0" y2= "8" />
     <line class="fil1 str0" x1="9" y1="-1" x2="1" y2= "8" />
     <line class="fil1 str0" x1="11" y1="-1" x2="3" y2= "8" />
     <line class="fil1 str0" x1="12" y1="-1" x2="4" y2= "8" />
     <line class="fil1 str0" x1="14" y1="-1" x2="6" y2= "8" />
     <line class="fil1 str0" x1="15" y1="-1" x2="8" y2= "8" />
     <line class="fil1 str0" x1="17" y1="-1" x2="9" y2= "8" />
     <line class="fil1 str0" x1="18" y1="-1" x2="11" y2= "8" />
     <line class="fil1 str0" x1="20" y1="-1" x2="12" y2= "8" />
     <line class="fil1 str0" x1="21" y1="-1" x2="14" y2= "8" />
     <line class="fil1 str0" x1="23" y1="-1" x2="15" y2= "8" />
     <line class="fil1 str0" x1="25" y1="-1" x2="17" y2= "8" />
     <line class="fil1 str0" x1="26" y1="-1" x2="18" y2= "8" />
     <line class="fil1 str0" x1="28" y1="-1" x2="20" y2= "8" />
     <line class="fil1 str0" x1="29" y1="-1" x2="22" y2= "8" />
     <line class="fil1 str0" x1="31" y1="-1" x2="23" y2= "8" />
     <line class="fil1 str0" x1="32" y1="-1" x2="25" y2= "8" />
     <line class="fil1 str0" x1="34" y1="-1" x2="26" y2= "8" />
     <line class="fil1 str0" x1="35" y1="-1" x2="28" y2= "8" />
     <line class="fil1 str0" x1="37" y1="-1" x2="29" y2= "8" />
     <line class="fil1 str0" x1="39" y1="-1" x2="31" y2= "8" />
     <line class="fil1 str0" x1="40" y1="-1" x2="32" y2= "8" />
     <line class="fil1 str0" x1="42" y1="-1" x2="34" y2= "8" />
     <line class="fil1 str0" x1="43" y1="-1" x2="36" y2= "8" />
     <line class="fil1 str0" x1="45" y1="-1" x2="37" y2= "8" />
     <line class="fil1 str0" x1="46" y1="-1" x2="39" y2= "8" />
     <line class="fil1 str0" x1="48" y1="-1" x2="40" y2= "8" />
     <line class="fil1 str0" x1="49" y1="-1" x2="42" y2= "8" />
     <line class="fil1 str0" x1="51" y1="-1" x2="43" y2= "8" />
     <line class="fil1 str0" x1="53" y1="-1" x2="45" y2= "8" />
     <line class="fil1 str0" x1="54" y1="-1" x2="46" y2= "8" />
     <line class="fil1 str0" x1="56" y1="-1" x2="48" y2= "8" />
     <line class="fil1 str0" x1="57" y1="-1" x2="50" y2= "8" />
     <line class="fil1 str0" x1="59" y1="-1" x2="51" y2= "8" />
     <line class="fil1 str0" x1="60" y1="-1" x2="53" y2= "8" />
     <line class="fil1 str0" x1="62" y1="-1" x2="54" y2= "8" />
     <line class="fil1 str0" x1="63" y1="-1" x2="56" y2= "8" />
     <line class="fil1 str0" x1="65" y1="-1" x2="57" y2= "8" />
     <line class="fil1 str0" x1="67" y1="-1" x2="59" y2= "8" />
     <line class="fil1 str0" x1="68" y1="-1" x2="60" y2= "8" />
     <line class="fil1 str0" x1="70" y1="-1" x2="62" y2= "8" />
     <line class="fil1 str0" x1="71" y1="-1" x2="64" y2= "8" />
     <line class="fil1 str0" x1="73" y1="-1" x2="65" y2= "8" />
     <line class="fil1 str0" x1="74" y1="-1" x2="67" y2= "8" />
     <line class="fil1 str0" x1="76" y1="-1" x2="68" y2= "8" />
     <line class="fil1 str0" x1="77" y1="-1" x2="70" y2= "8" />
     <line class="fil1 str0" x1="79" y1="-1" x2="71" y2= "8" />
     <line class="fil1 str0" x1="81" y1="-1" x2="73" y2= "8" />
     <line class="fil1 str0" x1="82" y1="-1" x2="74" y2= "8" />
     <line class="fil1 str0" x1="84" y1="-1" x2="76" y2= "8" />
     <line class="fil1 str0" x1="85" y1="-1" x2="78" y2= "8" />
     <line class="fil1 str0" x1="87" y1="-1" x2="79" y2= "8" />
     <line class="fil1 str0" x1="88" y1="-1" x2="81" y2= "8" />
     <line class="fil1 str0" x1="90" y1="-1" x2="82" y2= "8" />
     <line class="fil1 str0" x1="91" y1="-1" x2="84" y2= "8" />
     <line class="fil1 str0" x1="93" y1="-1" x2="85" y2= "8" />
     <line class="fil1 str0" x1="95" y1="-1" x2="87" y2= "8" />
     <line class="fil1 str0" x1="96" y1="-1" x2="88" y2= "8" />
     <line class="fil1 str0" x1="98" y1="-1" x2="90" y2= "8" />
     <line class="fil1 str0" x1="99" y1="-1" x2="92" y2= "8" />
     <line class="fil1 str0" x1="101" y1="-1" x2="93" y2= "8" />
     <line class="fil1 str0" x1="102" y1="-1" x2="95" y2= "8" />
     <line class="fil1 str0" x1="104" y1="-1" x2="96" y2= "8" />
     <line class="fil1 str0" x1="105" y1="-1" x2="98" y2= "8" />
     <line class="fil1 str0" x1="107" y1="-1" x2="99" y2= "8" />
     <line class="fil1 str0" x1="109" y1="-1" x2="101" y2= "8" />
     <line class="fil1 str0" x1="110" y1="-1" x2="102" y2= "8" />
     <line class="fil1 str0" x1="112" y1="-1" x2="104" y2= "8" />
     <line class="fil1 str0" x1="113" y1="-1" x2="106" y2= "8" />
     <line class="fil1 str0" x1="115" y1="-1" x2="107" y2= "8" />
     <line class="fil1 str0" x1="116" y1="-1" x2="109" y2= "8" />
     <line class="fil1 str0" x1="118" y1="-1" x2="110" y2= "8" />
     <line class="fil1 str0" x1="119" y1="-1" x2="112" y2= "8" />
     <line class="fil1 str0" x1="121" y1="-1" x2="113" y2= "8" />
     <line class="fil1 str0" x1="123" y1="-1" x2="115" y2= "8" />
     <line class="fil1 str0" x1="124" y1="-1" x2="116" y2= "8" />
     <line class="fil1 str0" x1="126" y1="-1" x2="118" y2= "8" />
     <line class="fil1 str0" x1="127" y1="-1" x2="120" y2= "8" />
     <line class="fil1 str0" x1="129" y1="-1" x2="121" y2= "8" />
     <line class="fil1 str0" x1="130" y1="-1" x2="123" y2= "8" />
     <line class="fil1 str0" x1="132" y1="-1" x2="124" y2= "8" />
     <line class="fil1 str0" x1="133" y1="-1" x2="126" y2= "8" />
     <line class="fil1 str0" x1="135" y1="-1" x2="127" y2= "8" />
     <line class="fil1 str0" x1="137" y1="-1" x2="129" y2= "8" />
     <line class="fil1 str0" x1="138" y1="-1" x2="130" y2= "8" />
     <line class="fil1 str0" x1="140" y1="-1" x2="132" y2= "8" />
     <line class="fil1 str0" x1="141" y1="-1" x2="134" y2= "8" />
     <line class="fil1 str0" x1="143" y1="-1" x2="135" y2= "8" />
     <line class="fil1 str0" x1="144" y1="-1" x2="137" y2= "8" />
     <line class="fil1 str0" x1="146" y1="-1" x2="138" y2= "8" />
     <line class="fil1 str0" x1="147" y1="-1" x2="140" y2= "8" />
     <line class="fil1 str0" x1="149" y1="-1" x2="141" y2= "8" />
     <line class="fil1 str0" x1="3" y1="-1" x2="-5" y2= "8" />
    </g>
   </g>
  </g>
  <polygon class="fil1" points="0,0 142,0 142,7 0,7 "/>
 </g>
</svg>
